<svg xmlns="http://www.w3.org/2000/svg" xmlns:xlink="http://www.w3.org/1999/xlink" width="500" zoomAndPan="magnify" viewBox="0 0 375 374.999991" height="500" preserveAspectRatio="xMidYMid meet" version="1.2"><defs><clipPath id="d9cd473329"><path d="M 37.5 64.3125 L 337.5 64.3125 L 337.5 311 L 37.5 311 Z M 37.5 64.3125 "/></clipPath></defs><g id="4e768693af"><g clip-rule="nonzero" clip-path="url(#d9cd473329)"><path style=" stroke:none;fill-rule:nonzero;fill:#ffffff;fill-opacity:1;" d="M 77.628906 64.3125 C 55.589844 64.3125 37.675781 82.226562 37.675781 104.265625 L 37.675781 237.441406 C 37.675781 257.21875 52.058594 273.664062 70.972656 276.796875 L 70.972656 263.203125 C 59.453125 260.273438 50.996094 249.828125 50.996094 237.441406 L 50.996094 104.265625 C 50.996094 89.550781 62.914062 77.628906 77.628906 77.628906 L 297.371094 77.628906 C 312.085938 77.628906 324.003906 89.550781 324.003906 104.265625 L 324.003906 237.441406 C 324.003906 249.828125 315.546875 260.273438 304.027344 263.203125 L 304.027344 276.796875 C 322.941406 273.664062 337.324219 257.21875 337.324219 237.441406 L 337.324219 104.265625 C 337.324219 82.226562 319.410156 64.3125 297.371094 64.3125 Z M 267.40625 117.582031 C 258.210938 117.582031 250.757812 125.035156 250.757812 134.230469 L 250.757812 294.039062 C 250.757812 303.234375 258.210938 310.6875 267.40625 310.6875 C 276.601562 310.6875 284.050781 303.234375 284.050781 294.039062 L 284.050781 134.230469 C 284.050781 125.035156 276.601562 117.582031 267.40625 117.582031 Z M 160.863281 157.535156 C 151.667969 157.535156 144.21875 164.988281 144.21875 174.183594 L 144.21875 294.039062 C 144.21875 303.234375 151.667969 310.6875 160.863281 310.6875 C 170.0625 310.6875 177.511719 303.234375 177.511719 294.039062 L 177.511719 174.183594 C 177.511719 164.988281 170.0625 157.535156 160.863281 157.535156 Z M 214.136719 184.171875 C 204.9375 184.171875 197.488281 191.621094 197.488281 200.816406 L 197.488281 294.039062 C 197.488281 303.234375 204.9375 310.6875 214.136719 310.6875 C 223.332031 310.6875 230.78125 303.234375 230.78125 294.039062 L 230.78125 200.816406 C 230.78125 191.621094 223.332031 184.171875 214.136719 184.171875 Z M 107.59375 217.464844 C 98.398438 217.464844 90.949219 224.914062 90.949219 234.113281 L 90.949219 294.039062 C 90.949219 303.234375 98.398438 310.6875 107.59375 310.6875 C 116.789062 310.6875 124.242188 303.234375 124.242188 294.039062 L 124.242188 234.113281 C 124.242188 224.914062 116.789062 217.464844 107.59375 217.464844 Z M 107.59375 217.464844 "/></g></g></svg>